<svg xmlns="http://www.w3.org/2000/svg" width="1200" height="630" viewBox="0 0 1200 630" role="img" aria-label="Conscious Cat Guardianship">
  <defs>
    <linearGradient id="bg" x1="0" y1="0" x2="1" y2="1">
      <stop offset="0%" stop-color="#0f172a"/>
      <stop offset="55%" stop-color="#1f2937"/>
      <stop offset="100%" stop-color="#334155"/>
    </linearGradient>
    <linearGradient id="accent" x1="0" y1="0" x2="1" y2="1">
      <stop offset="0%" stop-color="#a7f3d0"/>
      <stop offset="100%" stop-color="#34d399"/>
    </linearGradient>
  </defs>

  <rect width="1200" height="630" fill="url(#bg)"/>
  <circle cx="1040" cy="130" r="210" fill="#ffffff" opacity="0.06"/>
  <circle cx="130" cy="590" r="250" fill="#ffffff" opacity="0.05"/>

  <g transform="translate(340 315)">
    <path d="M-160,-8 L-85,-175 L-20,-25" fill="#0b1220" stroke="#7dd3fc" stroke-opacity="0.35" stroke-width="6"/>
    <path d="M160,-8 L85,-175 L20,-25" fill="#0b1220" stroke="#7dd3fc" stroke-opacity="0.35" stroke-width="6"/>
    <ellipse cx="0" cy="90" rx="195" ry="195" fill="#0b1220" stroke="url(#accent)" stroke-opacity="0.85" stroke-width="10"/>
    <circle cx="-66" cy="66" r="12" fill="#a7f3d0"/>
    <circle cx="66" cy="66" r="12" fill="#a7f3d0"/>
    <path d="M0,100 l-16,15 h32 z" fill="#a7f3d0"/>
    <path d="M-38,136 q38,27 76,0" fill="none" stroke="#a7f3d0" stroke-width="6" stroke-linecap="round"/>
  </g>

  <text x="560" y="210" fill="#a7f3d0" font-family="Inter, Arial, sans-serif" font-size="22" letter-spacing="3" font-weight="700">
    CATS.NEALFRAZIER.TECH
  </text>
  <text x="560" y="300" fill="#ffffff" font-family="Georgia, 'Times New Roman', serif" font-size="70" font-weight="600">
    Conscious Cat
  </text>
  <text x="560" y="365" fill="#ffffff" font-family="Georgia, 'Times New Roman', serif" font-size="70" font-weight="600">
    Guardianship
  </text>
  <text x="560" y="438" fill="#d1d5db" font-family="Inter, Arial, sans-serif" font-size="30" font-weight="500">
    Ethical care, rescue-first guidance, and breed intelligence.
  </text>
</svg>
